<?xml version="1.0" encoding="utf-8"?>
<!-- Generator: Adobe Illustrator 19.1.0, SVG Export Plug-In . SVG Version: 6.00 Build 0)  -->
<svg version="1.1" id="Layer_1" xmlns="http://www.w3.org/2000/svg" xmlns:xlink="http://www.w3.org/1999/xlink" x="0px" y="0px"
	 viewBox="0 0 505.9 505.9" style="enable-background:new 0 0 505.9 505.9;" xml:space="preserve">
<style type="text/css">
	.st0{fill:#FFFFFF;}
</style>
<g>
	<path class="st0" d="M505.9,253.1C505.7,392.6,392,506.7,251.3,505.9C113.1,505,0.1,392.7,0,253C-0.1,111.9,115.5-1.4,255.5,0
		C392.9,1.4,505.8,113.5,505.9,253.1z M262.7,219.5c0-16.1,0-32,0-48.1c-4.5,0-8.6,0.1-12.8,0c-2.3-0.1-4.2,0.7-6.1,1.7
		c0.2,5.9,0.3,11.6,0.7,17.4c0.7,9.5,0,19-1.4,28.7c-9.9,0.6-19.9,1.1-29.8,1.7c-10,0.6-19.9-0.8-29.8-0.9c-0.4,4.5-0.3,14.1,0.3,16
		c19.9,0,39.8,0,60,0c0,1.2,0,2.2,0,3.1c-0.1,5.9-0.2,11.8-0.5,17.7c-0.8,15.3,0.1,30.5,0.8,45.8c0.3,7.3,0.6,14.5,0.6,21.8
		c0,13.8-0.3,27.7-0.4,41.5c0,0.8,0,1.7,0,2.5c3.8,0.5,19.1,0.3,20.8-0.2c0-21.9,0.2-43.8,0-65.7c-0.2-22-1-43.9-1.3-66.1
		c20.7,0.2,41.1,0.4,61.5,0.6c0-5.7,0-11.1,0-16.6c-0.8,0-1.4,0-2.1,0c-7,0.2-13.9,0.2-20.9,0.5c-10.3,0.4-20.6,0.7-30.9-0.6
		C268.7,220.1,265.9,219.9,262.7,219.5z M326.2,47.3c-6.9,14.5-13.7,28.6-20.6,42.9c3.2,1.5,6.2,3,9.3,4.4c4.4-9.1,8.7-18,12.9-26.9
		c1.7,7.7,2.4,15.3,3.8,23.1c6.9-4.1,13.5-8.1,20.1-12c0.1,0.1,0.2,0.2,0.4,0.4c-4.3,9-8.6,17.9-12.8,26.8c2.4,1.6,7.7,4.1,9.5,4.4
		c6.8-14.1,13.5-28.3,20.4-42.6c-3.5-1.7-6.8-3.3-10.2-4.9c-1.7,1.1-3.3,2.1-4.9,3.1c-1.7,1.1-3.4,2.2-5,3.2c-1.6,1-3.2,2.1-4.9,3.1
		c-1.7,1-3.1,2.3-5.2,2.9c-0.9-7.9-1.7-15.5-2.6-23.1C332.9,50.5,329.7,48.9,326.2,47.3z M95.7,364.2c-17.1-24.9-28-52-32.5-81.6
		c-4.5-29.6-2.3-58.7,6.4-87.5c-1.5-0.5-2.7-0.9-3.9-1.3c-1.2-0.4-2.4-0.7-3.8-1.1c-9.8,32.6-11.7,65.4-5.4,98.5
		c5.3,28.1,16.2,53.8,32.5,77.5C91.4,367.2,93.5,365.7,95.7,364.2z M442.3,202.8c13.6,56.8,5,109.7-26.5,158.9
		c2.2,1.4,4.3,2.9,6.4,4.3c18.6-27.2,31.9-62.3,34.1-101.5c1.2-21.5-0.8-42.7-6.5-63.6C447.1,201.5,444.7,202.2,442.3,202.8z
		 M433.5,129c-13.8,8-27.4,15.9-41.2,23.9c1.8,3.1,3.5,6,5.3,9.1c4.5-2.6,8.7-5,13.1-7.6c1.1,1.9,2,3.7,3.2,5.4
		c0.8,1.2,0.7,2.3,0.1,3.5c-2.2,4.3-4.3,8.7-6.5,13.1c-0.4,0.8-0.8,1.5-0.2,2.4c1.9,3.1,3.6,6.2,5.6,9.7c3-6.3,5.9-12.3,8.8-18.4
		c0.9,0.6,1.6,1.1,2.4,1.5c2.6,1.5,5.4,2.4,8.5,2.1c3.9-0.4,7.2-2,10.1-4.5c3.2-2.8,4.9-6.3,4.9-10.5c0-3.9-1.3-7.4-3.2-10.7
		c-2.7-4.8-5.5-9.5-8.3-14.3C435.4,132.1,434.6,130.7,433.5,129z M261.3,424.1c2.5,15.8,5.1,31.3,7.6,47c3.6-0.6,6.9-1.1,10.3-1.7
		c-0.8-5.1-1.6-10-2.4-15c2.1-0.3,3.9-0.5,5.6-1c1.7-0.5,2.8,0,4,1.3c3.1,3.5,6.4,6.9,9.6,10.4c0.6,0.6,1,1.4,2.2,1.2
		c3.6-0.6,7.2-1.1,11.2-1.8c-4.9-5.2-9.4-9.9-13.9-14.7c0.1-0.2,0.1-0.3,0.2-0.3c0.2-0.2,0.5-0.4,0.7-0.6c5.1-3.5,7.2-8.3,6.7-14.4
		c-0.6-6.9-4.6-12-11-13.6c-1.5-0.4-3.2-0.7-4.7-0.6c-2.6,0.1-5.2,0.5-7.8,0.9C273.7,422,267.7,423,261.3,424.1z M87.7,167.3
		c1.2-2,2.3-3.8,3.3-5.7c0.5-0.9,1.2-1.3,2.3-1.4c4.9-0.2,9.7-0.6,14.6-0.8c1.7-0.1,2.6-0.6,3.4-2.1c1.1-2.1,2.4-4.1,3.6-6.2
		c0.4-0.7,0.7-1.4,1.3-2.4c-6.9,0.4-13.5,0.8-19.8,1.2c-0.3-0.4-0.4-0.4-0.4-0.5c0-0.6,0.1-1.3,0.1-1.9c0.2-4.7-1.3-8.7-4.9-11.7
		c-4.2-3.5-9-5.6-14.6-4.1c-4.1,1.1-7.2,3.6-9.4,7c-4.3,6.8-8.3,13.8-12.5,20.8c0,0.1,0,0.1,0,0.5c13.4,8,27,16,40.7,24.1
		c1.9-3.2,3.6-6,5.3-9C96.3,172.4,92.1,169.9,87.7,167.3z M162.6,107.3c0.6-0.2,1-0.3,1.4-0.5c5.4-2.4,10.8-4.8,16.1-7.4
		c2-1,4-2.1,5.7-3.5c7.1-5.7,10.4-13.2,8.8-22.2c-1.5-9-6.6-15.5-15.3-18.7c-6.3-2.2-12.6-1.6-18.7,1.1c-5.3,2.3-10.6,4.8-15.9,7.2
		c-0.6,0.3-1.1,0.6-1.7,0.9C149.5,78.6,156,92.9,162.6,107.3z M358.4,118.5c8.9,8.4,17.6,16.5,26.4,24.9c2.2-2.4,4.3-4.6,6.4-6.8
		c-6.3-6-12.5-11.8-18.8-17.7c2.3-2.5,4.5-4.8,6.8-7.2c5.5,5.2,10.9,10.2,16.3,15.3c2.2-2.3,4.2-4.5,6.4-6.8
		c-5.5-5.2-10.8-10.2-16.3-15.4c2.3-2.4,4.4-4.6,6.6-6.9c6.3,5.9,12.4,11.6,18.6,17.4c2.2-2.4,4.3-4.5,6.4-6.8
		c-8.8-8.3-17.4-16.4-26.2-24.6C380.1,95.4,369.3,106.8,358.4,118.5z M360.6,384.2c-2.7,2.5-5.1,4.8-7.7,7.2
		c10.9,11.6,21.7,23.1,32.6,34.7c2.6-2.5,5.1-4.8,7.7-7.2c-4.4-4.7-8.7-9.2-13-13.9c4.7-4.4,9.3-8.7,14-13.1
		c4.4,4.7,8.7,9.2,13.1,13.9c1.4-1.3,2.7-2.4,3.9-3.6c1.2-1.2,2.5-2.4,3.7-3.7c-11-11.7-21.7-23.1-32.5-34.6
		c-2.7,2.5-5.1,4.8-7.7,7.2c4.3,4.6,8.5,9.2,12.8,13.8c-4.8,4.5-9.3,8.7-14,13.1C369.2,393.2,365,388.8,360.6,384.2z M145.6,108.1
		c-6.4,5.8-12.8,11.5-19.2,17.3c-2.3-2.5-4.4-4.9-6.6-7.3c5.6-5.1,11-10,16.6-15c-2.1-2.4-4.2-4.6-6.3-6.9c-5.6,5.1-11.1,10-16.6,15
		c-2.2-2.4-4.2-4.7-6.4-7.1c6.4-5.8,12.6-11.4,18.8-17.1c-2.2-2.4-4.1-4.6-6.3-6.9C110.7,88,101.9,96,93,104
		c10.7,11.8,21.3,23.5,32,35.3c9-8.1,17.8-16.2,26.9-24.3C149.7,112.6,147.7,110.4,145.6,108.1z M162.4,418.9
		c2.8-5.7,5.4-11.2,8.2-16.9c-3.2-1.6-6.3-3.1-9.4-4.6c-7,14.4-13.9,28.5-20.8,42.8c3.3,1.6,6.2,3,9.4,4.6
		c2.8-5.8,5.6-11.4,8.4-17.1c5.9,2.9,11.5,5.6,17.2,8.4c-2.8,5.9-5.5,11.4-8.3,17.1c1.7,0.9,3.2,1.6,4.7,2.3
		c1.5,0.7,3.1,1.5,4.8,2.2c7-14.4,13.9-28.5,20.8-42.7c-3.3-1.6-6.3-3-9.4-4.6c-2.8,5.6-5.5,11.1-8.3,16.9
		C173.8,424.4,168.2,421.7,162.4,418.9z M239.6,44.8c-0.5-3.3-0.9-6.2-1.4-9.2c-11.9,1.8-23.6,3.6-35.5,5.4
		c2.4,15.8,4.8,31.2,7.2,47c12-1.8,23.9-3.6,35.9-5.5c-0.5-3.2-1-6.1-1.5-9.2c-8.6,1.3-16.9,2.5-25.5,3.8c-0.5-3.4-1-6.5-1.5-9.8
		c7.5-1.1,14.7-2.3,22.1-3.4c-0.5-3.2-1-6.1-1.4-9.2c-7.5,1.1-14.7,2.2-22.1,3.3c-0.5-3.3-1-6.3-1.4-9.5
		C222.9,47.4,231.1,46.1,239.6,44.8z M293.2,67.7c0.3-3.2,1.1-6.1,1-9.3c-7.4-1-14.6-1.9-22-2.9c0.4-3.2,0.8-6.3,1.2-9.5
		c8.5,1.1,16.8,2.1,25.2,3.2c0.4-3.2,0.8-6.1,1.2-9.2c-11.9-1.6-23.7-3.1-35.6-4.5c-2,15.8-4,31.3-6,47.1c12,1.5,23.9,3.1,35.9,4.6
		c0.4-3.2,0.8-6.1,1.2-9.3c-8.7-1.1-17-2.2-25.5-3.3c0.4-3.4,0.8-6.5,1.3-9.8C278.4,65.8,285.6,66.7,293.2,67.7z M239.3,422.8
		c-0.2,0.5-0.3,0.9-0.4,1.3c-1,6.6-1.9,13.3-2.9,19.9c-0.5,3-0.8,6-1.6,8.9c-0.9,3.3-3,5.7-6.4,6.5c-2.5,0.6-5.1,0.4-7.5-0.7
		c-2.6-1.1-4.3-3-5.1-5.7c-0.7-2.4-0.6-4.7-0.3-7.1c1.2-8.2,2.4-16.4,3.6-24.7c0.1-0.4,0-0.9-0.1-1.5c-3.4-0.5-6.7-0.9-10-1.4
		c-0.2,0.5-0.3,0.7-0.3,0.9c-1.1,7.7-2.3,15.5-3.3,23.2c-0.4,3.3-0.7,6.7-0.5,10c0.4,6.5,3.6,11.3,9.5,14.2c4.6,2.2,9.4,3,14.4,2.6
		c5.9-0.5,10.7-3.1,13.8-8.3c1.8-3,2.8-6.3,3.3-9.7c1-6.4,1.9-12.8,2.8-19.2c0.4-2.6,0.7-5.2,1.1-8
		C246,423.7,242.7,423.3,239.3,422.8z M353.9,429.7c-1.7,4.1-3.8,7.6-7.6,9.8c-3.9,2.2-8,2.7-12.2,0.9c-7-2.9-11.1-11.4-9.1-18.6
		c0.9-3.2,2.7-5.8,5.5-7.6c4.6-3.1,9.6-2.8,14.9-1.4c0.9-3.3,1.8-6.5,2.6-9.6c-11.2-5-28.5,2.2-33,15.3
		c-4.5,13.2,3.2,28.3,16.4,32.2c12.8,3.8,28.5-4.8,31.2-17.8C359.8,431.9,357,430.8,353.9,429.7z M149.2,397c-0.1-1-0.1-1.7-0.2-2.5
		c-1-8.2-5.5-14.2-12.1-18.7c-5.1-3.5-10.9-4.8-17.1-3.8c-11.9,1.8-21.2,12.8-21.1,24.8c0,12.8,11.2,23.3,21.9,24.5
		c1.9,0.2,3.9,0.4,5.6-0.1c0-3.2,0-6.2,0-9.1c-2-0.3-3.6-0.4-5.3-0.7c-7.6-1.5-12.6-8.2-11.5-15.7c0.7-5.2,3.7-9,8.1-11.6
		c7-4.2,15.5-1.8,19.3,5.4c1,1.9,1.4,4.1,2,6.1c0.2,0.7,0.3,1.5,0.5,2.4C142.6,397.7,145.7,397.4,149.2,397z M217.2,181.9
		c-1.7-2.1-3.8-2.2-5.9-1.6c-3.8,1.1-7.5,2-11.5,0.6c-0.8,2-2.7,3.1-3,5.2C201.5,190.1,214.1,187.9,217.2,181.9z M306.7,162.6
		c-7.4-3.1-16.7,0.7-18.7,7.5c0.5,0.4,1,0.9,1.5,1.4c0.8,0.9,1.7,1.1,2.7,0.3c3.7-3.1,7.9-5,12.8-5
		C305.6,165.3,306.1,164,306.7,162.6z M202.1,163.9c5.8,1.8,11.4,3.5,17.2,5.4c0.4-2.8-0.6-4.6-2.4-6c-1.1-0.8-2.3-1.4-3.5-2
		c-2.9-1.4-5.7-2.6-8.7-4c-1.6,1.3-2,1.7-3.4,4.8C201.5,162.7,201.9,163.4,202.1,163.9z M221,144.2c-1.1,4.8-0.1,7.1,3.9,9.3
		c0.2,0.1,0.4,0.2,0.6,0.3c2.8,1.2,5,2.9,4.9,6.2c3.5,0.7,5.1-0.6,5.4-4.6c-2.9-0.4-4.6-2.5-6.1-4.9c-0.7-1.2-1.4-2.3-2.2-3.4
		C226,145,223.8,144.1,221,144.2z M282.4,157.2c7.1-2.2,13.3-5.2,16.5-12.3C293.3,142.1,281.4,149.9,282.4,157.2z M245.3,135.6
		c-0.8,1.1-1.7,2.2-2.5,3.4c-0.3,0.5-0.4,1.6-0.1,1.9c1.2,1.2,1.1,2.6,1.2,4c0.1,1.7,0.1,3.4,0.3,5c0.2,1.5,0.7,2.8,2.2,3.5
		c1.1,0.5,1.9,0.4,2.4-0.7c0.5-1.2,1.1-2.6,1.1-3.9c0-4.1-0.3-8.2-0.5-12.3C247.9,136.2,246.7,135.9,245.3,135.6z M309.2,185.3
		c-0.2-1.4-0.2-2.6-0.6-3.7c-0.8-2.2-2.5-2.9-4.7-2.3c-1.5,0.4-3,0.6-4.5,0.8c-1.7,0.3-3.5,0.5-5.1,1.1c-1.5,0.5-2.8,1.3-3.6,3.3
		c1.8,0.5,3.5,1.3,5.2,1.3C300.2,185.8,304.6,185.5,309.2,185.3z M204.9,205.3c11-4.7,11-4.7,12.9-7.4c-0.4-0.6-0.8-1.3-1.1-1.8
		c-1.7,0.2-3.2,0.3-4.7,0.5c-2.1,0.3-4.3,0.4-6.4,0.8c-2,0.4-3.3,1.8-4,3.7c-0.5,1.4-0.3,1.7,1,2.5
		C203.4,204.1,204.1,204.7,204.9,205.3z M270.9,135c-1.7,3.4-3.4,6.7-5,10.1c-0.6,1.3-1,2.7-1.2,4.1c-0.2,0.9,0,1.9,0,3.2
		c6.8-3.2,9.3-8.9,11-14.9C273.9,136.6,272.5,135.9,270.9,135z M300.9,207.2c0.4-1.5,0.9-3,1.2-4.5c0.2-0.8,0.1-1.6-0.9-2
		c-2.9-1.1-5.7-2.4-8.7-3.5c-1.9-0.7-4-1.1-6-0.1c0.6,2.3,1.2,3.4,2.9,4.6c1.3,0.9,2.7,1.6,4.2,2.3
		C296,205.1,298.3,206.1,300.9,207.2z"/>
	<path class="st0" d="M430.6,142.8c2.1,3.7,4.2,7.1,6,10.7c1.9,3.9,0.5,7.5-3.3,9.2c-2.3,1-4.4,0.8-6.3-0.7
		c-0.8-0.6-1.6-1.4-2.1-2.2c-2-3.3-3.9-6.6-6-10.1C422.8,147.4,426.5,145.2,430.6,142.8z"/>
	<path class="st0" d="M275.3,444.9c-0.7-4.4-1.4-8.7-2.1-13.4c4.6-0.5,8.8-1.3,13.1-1.5c3.4-0.2,5.5,1.8,6.2,5.1
		c0.7,3-0.5,5.6-3.2,7.1c-1,0.6-2.2,1-3.4,1.2c-3.2,0.6-6.4,1.1-9.7,1.6C276.1,445.1,275.9,445,275.3,444.9z"/>
	<path class="st0" d="M68,155.6c2-3.4,3.8-6.5,5.7-9.5c0.5-0.7,1-1.4,1.7-2c2.3-2.2,4.9-2.6,7.7-1.1c2.8,1.5,3.9,3.9,3.4,7
		c-0.1,0.5-0.2,1.1-0.5,1.6c-2,3.6-4.1,7.2-6.2,11C75.7,160.2,72,158,68,155.6z"/>
	<path class="st0" d="M168.3,94.5c-4-8.8-7.9-17.3-11.9-26c4.5-1.9,8.5-4.7,13.4-4.8c1.8-0.1,3.8,0.4,5.6,1.1
		c6.2,2.6,10,10.5,8.4,17.1c-0.9,3.7-3.1,6.5-6.4,8.3C174.6,91.7,171.6,92.9,168.3,94.5z"/>
</g>
</svg>
